# xmcd
#
# Track frame offsets:
#	150
#	17339
#	34336
#	53434
#	67612
#	93307
#	108817
#	128736
#	152017
#	170078
#	184407
#	198602
#
# Disc length: 2934 seconds
#
# Revision: 0
# Processed by: cddbd v1.5.1PL0 Copyright (c) Steve Scherf et al.
# Submitted via: audiograbber 1.83.01
#
DISCID=920b740c
DTITLE=The Heid-Bassett Blues Insurgents - The Heid-Bassett Blues Insurgents
DYEAR=1992
DGENRE=Blues
TTITLE0=Same Old Blues
TTITLE1=Woke Up This Morning
TTITLE2=Milling
TTITLE3=Blowin' The Horn
TTITLE4=Hentai Ni
TTITLE5=Tired Of Waiting
TTITLE6=Pick Up The Pieces
TTITLE7=Mellow Dog
TTITLE8=Years Gone By
TTITLE9=Mal's Boogie
TTITLE10=Sweet Little Angel
TTITLE11=Wonderin' Blues
EXTD=
EXTT0=
EXTT1=
EXTT2=
EXTT3=
EXTT4=
EXTT5=
EXTT6=
EXTT7=
EXTT8=
EXTT9=
EXTT10=
EXTT11=
PLAYORDER=
